<?xml version="1.0" encoding="UTF-8"?>
<svg id="Layer_2" data-name="Layer 2" xmlns="http://www.w3.org/2000/svg" viewBox="0 0 160.42 160.57">
  <defs>
    <style>
      .cls-1 {
        fill: #f1f1f1;
      }

      .cls-2 {
        fill: #0b75a4;
      }

      .cls-3 {
        fill: #5a5a5a;
      }

      .cls-4 {
        fill: #cccbcb;
      }

      .cls-5 {
        fill: #a3a3a3;
      }

      .cls-6 {
        fill: #3d97d3;
      }

      .cls-7 {
        fill: #7f7f7f;
      }

      .cls-8 {
        fill: #7ccdf3;
      }

      .cls-9 {
        fill: #4bbeee;
      }
    </style>
  </defs>
  <g id="Layer_1-2" data-name="Layer 1">
    <g>
      <path class="cls-8" d="M135.92,135.97c-1.02,1.02-2.04,1.99-3.08,2.95-14.97,13.45-33.79,20.23-52.64,20.36-19.04.15-38.08-6.46-53.26-19.86-1.23-1.1-2.47-2.25-3.66-3.44-.74-.74-1.45-1.49-2.17-2.25C7.71,119.22.67,100.96.04,82.53c-.02-.72.02-1.45,0-2.17v-3.55c.61-18.2,7.45-36.17,20.47-50.58.91-1,1.82-1.95,2.77-2.9.91-.91,1.84-1.8,2.79-2.66C39.9,8.1,57.07,1.28,74.53.19c3.38-.26,6.76-.26,10.14,0,17.7,1.1,35.09,8.1,49,20.97.76.71,1.52,1.43,2.25,2.17,1.19,1.19,2.32,2.4,3.42,3.64,13.43,15.21,20.08,34.33,19.86,53.4-.13,18.89-6.98,37.69-20.45,52.64-.93,1.02-1.86,1.99-2.84,2.97Z"/>
      <polygon points="160.42 160.55 160.35 160.53 160.38 160.51 160.42 160.55"/>
      <path class="cls-1" d="M132.84,138.91l-47.74-37.56-4.9,40.9v-61.91l61.89.02-40.9,4.9,37.56,47.74c-.93,1.02-1.86,1.99-2.84,2.97-1.02,1.02-2.04,1.99-3.08,2.95Z"/>
      <path class="cls-8" d="M132.84,138.91c-14.97,13.45-33.79,21.49-52.64,21.62l-.02-18.26.02-.02,4.9-40.9,47.74,37.56Z"/>
      <path class="cls-9" d="M138.76,133l-37.56-47.74,40.9-4.9h17.11c-.13,18.89-6.98,37.69-20.45,52.64Z"/>
      <path class="cls-6" d="M159.21,80.36h-17.11s-40.9-4.9-40.9-4.9l38.15-48.5c13.43,15.21,20.08,34.33,19.86,53.4Z"/>
      <polygon class="cls-4" points="80.21 160.53 .06 160.53 26.94 139.41 75.29 101.38 80.21 142.25 80.19 142.27 80.21 159.28 80.21 160.53"/>
      <path class="cls-1" d="M142.09,80.36l-61.89-.02V18.48l4.9,40.9,48.56-38.21c.76.71,1.52,1.43,2.25,2.17,1.19,1.19,2.32,2.4,3.42,3.64l-38.15,48.5,40.9,4.9Z"/>
      <polygon class="cls-1" points="80.21 80.36 80.2 142.25 75.31 101.37 .05 160.53 .04 160.53 .04 160.52 59.2 85.26 18.3 80.36 80.21 80.36"/>
      <polygon points=".05 160.53 0 160.57 .04 160.52 .04 160.53 .05 160.53"/>
      <polygon points="160.38 .22 160.35 .2 160.4 .15 160.38 .22"/>
      <polygon class="cls-1" points="80.21 80.36 18.3 80.36 59.2 75.46 .04 .21 .04 .19 .05 .19 75.31 59.35 80.2 18.47 80.21 80.36"/>
      <polygon class="cls-5" points="59.2 85.26 .04 160.52 .04 80.36 18.3 80.36 59.2 85.26"/>
      <path class="cls-2" d="M133.67,21.16l-48.56,38.21-4.9-40.9-.02-.02.02-18.26h4.46c17.7,1.1,35.09,8.1,49,20.97Z"/>
      <polygon class="cls-3" points="80.2 18.47 75.31 59.35 .05 .19 80.2 .2 80.2 18.46 80.2 18.47"/>
      <polygon class="cls-7" points="59.2 75.46 18.3 80.36 .04 80.36 .04 .21 59.2 75.46"/>
      <polygon points=".05 .19 .04 .19 .04 .21 0 .15 .05 .19"/>
    </g>
  </g>
</svg>
