<?xml version="1.0" encoding="UTF-8"?>
<svg id="Layer_2" data-name="Layer 2" xmlns="http://www.w3.org/2000/svg" viewBox="0 0 763.11 160.55">
  <defs>
    <style>
      .cls-1 {
        fill: #fff;
      }
    </style>
  </defs>
  <g id="Layer_1-2" data-name="Layer 1">
    <g>
      <g>
        <path class="cls-1" d="M18.3,80.35l40.9,4.9-38.09,48.46C7.71,119.21.67,100.95.04,82.52v-1.08c0-.36.01-.73,0-1.09v-3.55c.6-18.19,7.45-36.16,20.46-50.57l38.7,49.22-40.9,4.9Z"/>
        <path class="cls-1" d="M133.67,21.15l-48.57,38.21-4.89-40.89h-.01s-4.89,40.87-4.89,40.87L26.09,20.65C39.91,8.09,57.07,1.27,74.53.2h.01c3.38-.26,6.75-.26,10.13,0,17.7,1.1,35.09,8.1,49,20.96Z"/>
        <path class="cls-1" d="M132.84,138.9c-14.96,13.46-33.79,20.24-52.63,20.37-19.04.15-38.08-6.46-53.27-19.87h-.01s36.48-28.68,36.48-28.68l11.88-9.35h.02s3.32,27.77,3.32,27.77l1.57,13.02v.08s4.9-40.9,4.9-40.9l47.74,37.56Z"/>
        <path class="cls-1" d="M159.21,80.35c-.13,18.89-6.98,37.69-20.45,52.64l-37.56-47.74,40.89-4.9-40.89-4.89,38.14-48.5c13.43,15.21,20.08,34.33,19.87,53.39Z"/>
        <polygon class="cls-1" points="160.42 160.55 160.35 160.53 160.38 160.51 160.42 160.55"/>
        <path class="cls-1" d="M80.21,160.52v-1.25l-.02-17.01.02-.02,4.89-40.9,47.74,37.56c-14.96,13.46-33.79,21.49-52.63,21.62Z"/>
        <path class="cls-1" d="M159.21,80.35c-.13,18.89-6.98,37.69-20.45,52.64l-37.56-47.74,40.89-4.9h17.12Z"/>
        <path class="cls-1" d="M159.21,80.35h-17.12l-40.89-4.89,38.14-48.5c13.43,15.21,20.08,34.33,19.87,53.39Z"/>
        <polygon class="cls-1" points="80.19 142.26 80.21 159.27 80.21 160.52 .06 160.52 26.94 139.4 63.41 110.72 75.29 101.38 75.29 101.39 78.63 129.14 80.2 142.16 80.21 142.24 80.19 142.26"/>
        <polygon class="cls-1" points="75.29 101.38 75.29 101.39 63.41 110.72 75.29 101.38"/>
        <polygon class="cls-1" points="80.2 142.16 80.2 142.24 78.63 129.14 80.2 142.16"/>
        <polygon class="cls-1" points="160.38 .21 160.35 .19 160.4 .15 160.38 .21"/>
        <path class="cls-1" d="M59.2,85.26l-38.09,48.46L.04,160.51v-79.07c0-.36.01-.73,0-1.09h18.26l40.9,4.9Z"/>
        <path class="cls-1" d="M133.67,21.15l-48.57,38.21-4.89-40.89h-.01s0-.02,0-.02v-9.13s.02-9.13.02-9.13h4.46c17.7,1.1,35.09,8.1,49,20.96Z"/>
        <polygon class="cls-1" points="80.2 .2 80.2 18.46 75.31 59.34 26.09 20.65 .05 .18 74.53 .2 80.2 .2"/>
        <polygon class="cls-1" points="59.2 75.45 18.3 80.35 .04 80.35 .04 .2 20.5 26.23 59.2 75.45"/>
        <polygon class="cls-1" points=".04 .18 .04 .2 0 .15 .04 .18"/>
      </g>
      <g>
        <g>
          <path class="cls-1" d="M189.66,34.04h15.15c3.54,0,6.73.78,9.58,2.35,2.83,1.55,5.03,3.72,6.62,6.51,1.58,2.78,2.38,5.93,2.38,9.45s-.79,6.68-2.38,9.45c-1.58,2.79-3.79,4.96-6.62,6.51-2.84,1.57-6.04,2.35-9.58,2.35h-15.15v-36.63ZM197.5,64.41h6.33c3.25,0,6.02-1.14,8.3-3.42,2.26-2.26,3.4-5.14,3.4-8.63,0-2.33-.53-4.44-1.58-6.31-1.02-1.82-2.43-3.24-4.24-4.27-1.75-.99-3.71-1.48-5.87-1.48h-6.33v24.11Z"/>
          <path class="cls-1" d="M242.71,41.47c2.26,0,4.38.4,6.33,1.19,1.96.79,3.63,1.92,5.01,3.38,1.4,1.48,2.44,3.3,3.14,5.47s.97,4.52.82,7.07h-23.27c.44,2.03,1.4,3.64,2.86,4.85,1.46,1.21,3.17,1.81,5.11,1.81,1.69,0,3.18-.43,4.48-1.29,1.3-.86,2.31-2.06,3.03-3.61l6.31,3.01c-1.31,2.42-3.2,4.3-5.67,5.64-2.47,1.38-5.19,2.07-8.15,2.07s-5.46-.6-7.79-1.79c-2.33-1.19-4.21-2.91-5.62-5.16-1.43-2.28-2.15-4.9-2.15-7.84s.71-5.6,2.15-7.87c1.43-2.28,3.32-4.01,5.67-5.18,2.33-1.18,4.91-1.76,7.74-1.76ZM242.71,47.32c-2.06,0-3.8.6-5.21,1.79-1.45,1.19-2.37,2.82-2.76,4.88h15.96c-.41-2.06-1.33-3.69-2.76-4.88-1.41-1.19-3.16-1.79-5.24-1.79Z"/>
          <path class="cls-1" d="M274.74,64.23l7.61-22.32h7.87l-10.14,28.76h-10.7l-10.09-28.76h7.84l7.61,22.32Z"/>
          <path class="cls-1" d="M306.97,41.47c2.26,0,4.38.4,6.33,1.19,1.96.79,3.63,1.92,5.01,3.38,1.4,1.48,2.44,3.3,3.14,5.47s.97,4.52.82,7.07h-23.27c.44,2.03,1.4,3.64,2.86,4.85,1.46,1.21,3.17,1.81,5.11,1.81,1.69,0,3.18-.43,4.48-1.29,1.3-.86,2.31-2.06,3.03-3.61l6.31,3.01c-1.31,2.42-3.2,4.3-5.67,5.64-2.47,1.38-5.19,2.07-8.15,2.07s-5.46-.6-7.79-1.79c-2.33-1.19-4.21-2.91-5.62-5.16-1.43-2.28-2.15-4.9-2.15-7.84s.71-5.6,2.15-7.87c1.43-2.28,3.32-4.01,5.67-5.18,2.33-1.18,4.91-1.76,7.74-1.76ZM306.97,47.32c-2.06,0-3.8.6-5.21,1.79-1.45,1.19-2.37,2.82-2.76,4.88h15.96c-.41-2.06-1.33-3.69-2.76-4.88-1.41-1.19-3.16-1.79-5.24-1.79Z"/>
          <path class="cls-1" d="M345.66,41.91h8.22l-9.91,14.38,9.91,14.38h-8.22l-7.05-10.14-7.05,10.14h-8.25l9.91-14.38-9.91-14.38h8.25l7.05,10.14,7.05-10.14Z"/>
          <path class="cls-1" d="M389.16,56.01v-6.13h20.03v2.48c0,2.66-.49,5.15-1.47,7.48-.98,2.33-2.34,4.33-4.07,6-1.74,1.65-3.79,2.94-6.16,3.86-2.37.92-4.87,1.38-7.51,1.38s-5.16-.46-7.52-1.38c-2.36-.92-4.41-2.2-6.14-3.86-1.74-1.67-3.1-3.67-4.09-6.02-.99-2.34-1.48-4.83-1.48-7.47s.49-5.13,1.48-7.47c.99-2.34,2.35-4.35,4.09-6.02,1.74-1.65,3.78-2.94,6.14-3.86,2.36-.92,4.87-1.38,7.52-1.38,3.68,0,6.99.84,9.94,2.5,2.95,1.67,5.21,3.97,6.79,6.9l-6.92,3.29c-.95-1.69-2.31-3.03-4.06-4.04-1.77-.97-3.69-1.46-5.75-1.46-3.22,0-5.94,1.1-8.17,3.29-2.25,2.2-3.37,4.94-3.37,8.22s1.12,6.05,3.35,8.25c2.21,2.2,4.95,3.29,8.2,3.29,2.38,0,4.58-.76,6.59-2.27,1.98-1.5,3.39-3.37,4.24-5.62h-11.65Z"/>
          <path class="cls-1" d="M414.4,70.67V31.43h7.36v39.23h-7.36Z"/>
          <path class="cls-1" d="M442.01,71.08c-2.86,0-5.46-.6-7.8-1.79-2.34-1.19-4.22-2.91-5.63-5.16-1.43-2.28-2.15-4.9-2.15-7.84s.72-5.6,2.15-7.87c1.43-2.28,3.32-4.01,5.67-5.18,2.35-1.18,4.94-1.76,7.76-1.76s5.44.6,7.78,1.79,4.23,2.91,5.66,5.16c1.43,2.26,2.15,4.89,2.15,7.87s-.72,5.56-2.15,7.84c-1.46,2.3-3.36,4.03-5.69,5.18-2.35,1.18-4.93,1.76-7.74,1.76ZM442.01,64.84c2.28,0,4.23-.81,5.85-2.43,1.6-1.6,2.4-3.65,2.4-6.15s-.8-4.53-2.4-6.13c-1.6-1.6-3.55-2.4-5.85-2.4s-4.27.8-5.85,2.4c-1.6,1.6-2.4,3.64-2.4,6.13s.8,4.55,2.4,6.15c1.58,1.62,3.53,2.43,5.85,2.43Z"/>
          <path class="cls-1" d="M479.86,41.47c1.86,0,3.62.37,5.29,1.1,1.67.73,3.12,1.75,4.37,3.04,1.23,1.31,2.19,2.89,2.89,4.75.7,1.86,1.05,3.83,1.05,5.93s-.35,4.07-1.05,5.93c-.7,1.86-1.66,3.43-2.89,4.72-1.24,1.3-2.7,2.31-4.37,3.04s-3.43,1.1-5.29,1.1c-5.25,0-8.66-1.55-10.24-4.65l-.31,4.24h-7.05V31.43h7.36v14.69c.82-1.46,2.13-2.61,3.93-3.42,1.8-.82,3.91-1.23,6.31-1.23ZM477.87,64.84c2.28,0,4.21-.81,5.8-2.43,1.58-1.62,2.38-3.66,2.38-6.13s-.78-4.54-2.35-6.16c-1.58-1.6-3.52-2.4-5.82-2.4s-4.27.8-5.85,2.4c-1.6,1.6-2.4,3.65-2.4,6.16s.8,4.53,2.4,6.13c1.62,1.62,3.57,2.43,5.85,2.43Z"/>
          <path class="cls-1" d="M511.07,41.47c2.4,0,4.5.41,6.3,1.23s3.11,1.96,3.95,3.42l.33-4.21h7.02v28.76h-7.02l-.33-4.24c-1.57,3.1-4.98,4.65-10.24,4.65-1.86,0-3.61-.37-5.27-1.1s-3.11-1.74-4.36-3.04c-1.23-1.29-2.19-2.87-2.89-4.72-.7-1.86-1.05-3.83-1.05-5.93s.35-4.07,1.05-5.93c.7-1.86,1.66-3.44,2.89-4.75,1.24-1.29,2.69-2.31,4.36-3.04,1.66-.73,3.42-1.1,5.27-1.1ZM513.06,64.84c2.3,0,4.26-.81,5.87-2.43,1.58-1.62,2.38-3.67,2.38-6.15s-.79-4.53-2.38-6.13c-1.6-1.6-3.56-2.4-5.87-2.4s-4.25.8-5.8,2.4c-1.58,1.6-2.38,3.65-2.38,6.16s.79,4.51,2.38,6.13c1.58,1.62,3.52,2.43,5.8,2.43Z"/>
          <path class="cls-1" d="M534.54,70.67V31.43h7.36v39.23h-7.36Z"/>
          <path class="cls-1" d="M579.42,63.9c2.08,0,3.99-.49,5.75-1.48,1.74-.97,3.09-2.31,4.06-4.01l6.92,3.29c-1.58,2.91-3.85,5.2-6.79,6.87-2.98,1.67-6.29,2.5-9.94,2.5-2.66,0-5.16-.46-7.52-1.38-2.36-.92-4.41-2.2-6.14-3.86-1.74-1.67-3.1-3.67-4.09-6.02-.99-2.34-1.48-4.83-1.48-7.47s.49-5.13,1.48-7.47c.99-2.34,2.35-4.35,4.09-6.02,1.74-1.65,3.78-2.94,6.14-3.86,2.36-.92,4.87-1.38,7.52-1.38,3.64,0,6.96.84,9.94,2.5,2.95,1.69,5.21,3.98,6.79,6.9l-6.92,3.29c-.95-1.69-2.31-3.03-4.06-4.04-1.77-.97-3.69-1.46-5.75-1.46-3.22,0-5.94,1.1-8.17,3.29-2.25,2.2-3.37,4.94-3.37,8.22s1.12,6.05,3.37,8.25c2.23,2.2,4.96,3.29,8.17,3.29Z"/>
          <path class="cls-1" d="M614.82,71.08c-2.86,0-5.46-.6-7.8-1.79-2.34-1.19-4.22-2.91-5.63-5.16-1.43-2.28-2.15-4.9-2.15-7.84s.72-5.6,2.15-7.87c1.43-2.28,3.32-4.01,5.67-5.18,2.35-1.18,4.94-1.76,7.76-1.76s5.44.6,7.78,1.79,4.23,2.91,5.66,5.16c1.43,2.26,2.15,4.89,2.15,7.87s-.72,5.56-2.15,7.84c-1.46,2.3-3.36,4.03-5.69,5.18-2.35,1.18-4.93,1.76-7.74,1.76ZM614.82,64.84c2.28,0,4.23-.81,5.85-2.43,1.6-1.6,2.4-3.65,2.4-6.15s-.8-4.53-2.4-6.13c-1.6-1.6-3.55-2.4-5.85-2.4s-4.27.8-5.85,2.4c-1.6,1.6-2.4,3.64-2.4,6.13s.8,4.55,2.4,6.15c1.58,1.62,3.53,2.43,5.85,2.43Z"/>
          <path class="cls-1" d="M663.19,70.67h-7.33v-14.38c0-2.86-.49-5-1.48-6.42-.99-1.42-2.55-2.13-4.7-2.13-2.33,0-4.12.77-5.36,2.3-1.26,1.57-1.89,3.65-1.89,6.26v14.38h-7.36v-28.76h7.05l.31,4.21c1.74-3.1,4.98-4.65,9.73-4.65,3.93,0,6.75,1.26,8.45,3.78,1.72,2.54,2.58,6.22,2.58,11.03v14.38Z"/>
          <path class="cls-1" d="M692.44,49.24l-7.36.49c-.17-.82-.67-1.54-1.51-2.17-.85-.6-1.85-.89-2.99-.89-1.41,0-2.54.27-3.38.82s-1.26,1.31-1.26,2.3c0,.63.24,1.18.72,1.66s1.08.85,1.81,1.12c.72.27,1.66.55,2.84.82,3.42.8,5.99,1.6,7.71,2.4,1.02.48,1.83,1.01,2.43,1.61,1.24,1.28,1.83,2.85,1.76,4.73-.09,2.86-1.21,5.07-3.38,6.62-2.17,1.55-5.2,2.32-9.08,2.32s-6.75-.71-9.02-2.14c-2.28-1.43-3.56-3.48-3.83-6.16l7.31-.61c.26,1.14.91,2.04,1.97,2.68,1.05.65,2.25.97,3.58.97,1.5,0,2.72-.3,3.65-.91.94-.6,1.41-1.43,1.41-2.49,0-1.84-2.2-3.25-6.59-4.24-1.99-.46-3.64-.91-4.93-1.35-1.14-.39-2.21-.92-3.19-1.58-.94-.63-1.59-1.37-1.97-2.21-.37-.84-.56-1.94-.56-3.28,0-2.69,1.08-4.73,3.24-6.13,2.18-1.41,5.18-2.12,8.99-2.12,3.46,0,6.19.66,8.21,1.98,2.02,1.32,3.16,3.25,3.44,5.78Z"/>
          <path class="cls-1" d="M697.88,41.91h7.33v14.38c0,2.86.49,5,1.48,6.42.99,1.42,2.55,2.13,4.7,2.13,2.33,0,4.12-.78,5.36-2.32,1.26-1.57,1.89-3.64,1.89-6.23v-14.38h7.35v28.76h-7.05l-.31-4.24c-1.74,3.1-4.98,4.65-9.73,4.65-3.93,0-6.75-1.26-8.45-3.78-1.72-2.54-2.58-6.21-2.58-11.01v-14.38Z"/>
          <path class="cls-1" d="M731.85,70.67V31.43h7.36v39.23h-7.36Z"/>
          <path class="cls-1" d="M748.66,41.91v-6.49h7.36v6.49h7.1v5.75h-7.1v13.05c0,2.35.88,3.65,2.66,3.91,1.35.29,2.83.27,4.44-.05v6.05c-1.91.31-3.7.46-5.36.46-3.29,0-5.62-.83-7-2.48-1.4-1.65-2.09-4.2-2.09-7.64v-13.31h-3.91v-5.75h3.91Z"/>
        </g>
        <g>
          <path class="cls-1" d="M227.15,122.45v-21.18h8.77c.91,0,1.75.19,2.52.58.77.39,1.43.89,1.98,1.52.56.63.99,1.34,1.3,2.13.31.8.46,1.6.46,2.42,0,.87-.14,1.71-.43,2.52-.29.81-.7,1.52-1.24,2.13-.54.62-1.18,1.11-1.92,1.49-.75.38-1.58.57-2.49.57h-6.89v7.81h-2.06ZM229.21,112.78h6.77c.62,0,1.18-.13,1.69-.4s.94-.63,1.3-1.07c.36-.45.64-.96.84-1.55.2-.59.3-1.2.3-1.83s-.11-1.28-.34-1.86c-.23-.59-.54-1.1-.92-1.54s-.85-.78-1.37-1.03c-.53-.25-1.08-.37-1.66-.37h-6.59v9.66Z"/>
          <path class="cls-1" d="M252.12,122.74c-1.13,0-2.17-.21-3.12-.64-.94-.43-1.76-1.01-2.45-1.75-.69-.74-1.22-1.59-1.6-2.56-.38-.97-.57-2-.57-3.07s.19-2.13.58-3.1c.39-.97.92-1.83,1.61-2.56.69-.74,1.5-1.32,2.45-1.76.94-.44,1.97-.66,3.09-.66s2.14.22,3.09.66c.94.44,1.76,1.02,2.45,1.76.69.74,1.22,1.59,1.61,2.56.39.97.58,2.01.58,3.1s-.19,2.1-.58,3.07c-.39.97-.92,1.83-1.61,2.56-.69.74-1.5,1.32-2.45,1.75-.94.43-1.97.64-3.09.64ZM246.48,114.75c0,.87.14,1.68.43,2.43.29.75.69,1.4,1.19,1.97.51.57,1.1,1.01,1.79,1.33.69.32,1.42.48,2.19.48s1.51-.16,2.19-.49c.69-.33,1.29-.78,1.8-1.34.52-.57.92-1.23,1.22-1.98s.45-1.57.45-2.45-.15-1.66-.45-2.43c-.3-.77-.71-1.43-1.22-2-.52-.57-1.11-1.01-1.79-1.34-.68-.33-1.4-.49-2.18-.49s-1.51.16-2.19.49c-.69.33-1.28.78-1.79,1.36-.51.58-.91,1.25-1.21,2.01-.3.77-.45,1.59-.45,2.46Z"/>
          <path class="cls-1" d="M282.87,106.91h1.97l-6.65,15.54h-1.7l-3.31-7.93-3.31,7.93h-1.7l-6.65-15.54h1.94l5.67,13.45,2.95-7.1-2.65-6.32h1.73l2.03,5.07,2-5.07h1.73l-2.62,6.32,2.95,7.1,5.64-13.45Z"/>
          <path class="cls-1" d="M294.92,122.74c-1.13,0-2.18-.21-3.13-.64-.95-.43-1.78-1.01-2.48-1.76s-1.24-1.61-1.63-2.58c-.39-.97-.58-2.02-.58-3.13s.19-2.12.58-3.09c.39-.96.93-1.81,1.63-2.53s1.52-1.3,2.46-1.73c.94-.43,1.98-.64,3.12-.64s2.17.21,3.12.64c.94.43,1.75,1.01,2.43,1.74.68.74,1.2,1.58,1.58,2.54.38.95.57,1.97.57,3.04,0,.16,0,.32-.01.48s-.03.27-.04.33h-13.27c.06.84.25,1.61.58,2.31.33.71.75,1.32,1.25,1.83.51.52,1.09.92,1.76,1.21.67.29,1.38.43,2.13.43.52,0,1.02-.07,1.52-.21.5-.14.95-.33,1.37-.57.42-.24.79-.53,1.12-.88.33-.35.58-.73.76-1.15l1.76.48c-.24.58-.58,1.1-1.01,1.57-.44.47-.94.88-1.52,1.22-.58.35-1.21.62-1.91.81-.7.19-1.41.28-2.15.28ZM300.64,113.86c-.06-.84-.25-1.6-.58-2.28s-.75-1.28-1.25-1.77c-.51-.5-1.1-.88-1.77-1.16-.68-.28-1.39-.42-2.15-.42s-1.47.14-2.15.42c-.68.28-1.27.67-1.77,1.16-.51.5-.91,1.09-1.22,1.79-.31.7-.49,1.45-.55,2.27h11.45Z"/>
          <path class="cls-1" d="M314.01,108.7c-1.37.04-2.56.42-3.58,1.13s-1.73,1.7-2.15,2.95v9.66h-2.03v-15.54h1.91v3.73c.54-1.09,1.24-2,2.12-2.73.87-.73,1.82-1.09,2.83-1.09h.51c.16,0,.29.01.39.03v1.85Z"/>
          <path class="cls-1" d="M318.18,122.45v-12.11h-2.15v-1.61h2.15v-2.24c0-1.91.41-3.4,1.22-4.49.82-1.08,1.94-1.63,3.37-1.63.6,0,1.18.09,1.76.27.58.18,1.07.42,1.49.72l-.63,1.46c-.28-.22-.62-.39-1.03-.51-.41-.12-.81-.18-1.21-.18-.95,0-1.69.37-2.19,1.1-.51.74-.76,1.8-.76,3.19v2.3h4.29v1.61h-4.29v12.11h-2.03Z"/>
          <path class="cls-1" d="M333.07,122.74c-1.63,0-2.86-.56-3.7-1.68-.83-1.12-1.25-2.8-1.25-5.03v-9.13h2.03v8.77c0,3.52,1.2,5.28,3.61,5.28.6,0,1.18-.1,1.76-.3s1.11-.49,1.6-.87c.49-.38.92-.82,1.31-1.34.39-.52.7-1.1.94-1.76v-9.78h2.03v12.91c0,.56.25.84.75.84v1.79c-.4.06-.68.09-.84.09-.46,0-.85-.14-1.18-.42-.33-.28-.49-.63-.49-1.04v-2.15c-.7,1.21-1.62,2.15-2.77,2.82s-2.42,1-3.79,1Z"/>
          <path class="cls-1" d="M346.7,100.67h2.03v18.25c0,.58.16,1.03.48,1.36.32.33.77.49,1.34.49.22,0,.48-.03.78-.09.3-.06.58-.14.84-.24l.36,1.64c-.38.16-.84.29-1.39.39s-1.02.15-1.42.15c-.93,0-1.67-.26-2.21-.79-.54-.53-.81-1.27-.81-2.22v-18.94Z"/>
          <path class="cls-1" d="M363.04,122.45v-21.15h2.06v21.15h-2.06Z"/>
          <path class="cls-1" d="M383.65,122.45h-2.03v-8.68c0-1.85-.27-3.19-.81-4.03-.54-.84-1.37-1.25-2.51-1.25-.6,0-1.19.11-1.79.33-.6.22-1.15.53-1.67.92-.52.4-.97.87-1.36,1.42-.39.55-.68,1.14-.88,1.77v9.51h-2.03v-15.54h1.85v3.52c.32-.56.71-1.07,1.18-1.54.47-.47.99-.87,1.57-1.21s1.19-.6,1.83-.78c.65-.18,1.32-.27,2.01-.27.87,0,1.61.16,2.19.48.59.32,1.06.77,1.42,1.34s.62,1.28.78,2.12c.16.84.24,1.76.24,2.77v9.1Z"/>
          <path class="cls-1" d="M393.7,122.74c-1.21,0-2.4-.2-3.55-.6-1.15-.4-2.15-.97-2.98-1.73l.92-1.37c.87.72,1.76,1.25,2.67,1.61s1.87.54,2.91.54c1.25,0,2.25-.25,3-.76.75-.51,1.12-1.23,1.12-2.16,0-.44-.1-.8-.3-1.09-.2-.29-.49-.54-.88-.76-.39-.22-.88-.41-1.46-.58-.59-.17-1.27-.34-2.04-.52-.89-.22-1.67-.44-2.33-.66-.66-.22-1.2-.47-1.63-.75-.43-.28-.75-.62-.95-1.03s-.31-.92-.31-1.54c0-.78.15-1.46.46-2.06.31-.6.73-1.09,1.25-1.48.53-.39,1.14-.68,1.85-.88s1.46-.3,2.25-.3c1.19,0,2.28.19,3.25.58.97.39,1.76.9,2.36,1.54l-.98,1.19c-.58-.6-1.28-1.04-2.1-1.34-.83-.3-1.68-.45-2.58-.45-.54,0-1.03.05-1.49.16-.46.11-.86.28-1.21.52-.35.24-.62.54-.82.91-.2.37-.3.8-.3,1.3,0,.42.07.76.21,1.01.14.26.37.48.69.67.32.19.72.36,1.21.51.49.15,1.08.3,1.77.46.99.24,1.87.48,2.62.72.76.24,1.39.52,1.89.83.51.32.89.71,1.15,1.16.26.46.39,1.01.39,1.67,0,1.43-.55,2.57-1.64,3.4-1.09.84-2.56,1.25-4.41,1.25Z"/>
          <path class="cls-1" d="M403.64,103.65v-2.98h2.03v2.98h-2.03ZM403.64,122.45v-15.54h2.03v15.54h-2.03Z"/>
          <path class="cls-1" d="M416.94,122.65c-1.07,0-2.05-.22-2.94-.67-.89-.45-1.65-1.04-2.3-1.77s-1.15-1.58-1.51-2.54-.54-1.94-.54-2.95c0-1.07.17-2.1.52-3.09.35-.98.84-1.84,1.48-2.58.64-.74,1.4-1.32,2.28-1.76.88-.44,1.86-.66,2.94-.66,1.33,0,2.49.33,3.46,1,.97.67,1.81,1.51,2.5,2.52v-3.25h1.82v15.6c0,1.07-.2,2.02-.61,2.85-.41.82-.95,1.52-1.64,2.07s-1.5.97-2.43,1.25c-.93.28-1.92.42-2.95.42-1.77,0-3.2-.32-4.3-.95-1.09-.64-1.98-1.49-2.65-2.57l1.25-.98c.62.99,1.43,1.72,2.45,2.19s2.1.7,3.25.7c.76,0,1.48-.1,2.16-.31s1.28-.52,1.79-.92c.51-.41.91-.92,1.21-1.55.3-.63.45-1.36.45-2.19v-3.07c-.62.99-1.44,1.78-2.46,2.36s-2.1.86-3.24.86ZM417.5,120.95c.6,0,1.18-.11,1.76-.33s1.1-.51,1.57-.88c.47-.37.86-.78,1.18-1.24.32-.46.53-.92.63-1.4v-4.8c-.22-.56-.52-1.07-.91-1.55-.39-.48-.82-.88-1.3-1.22s-.99-.61-1.54-.81c-.55-.2-1.1-.3-1.66-.3-.88,0-1.65.18-2.33.55s-1.25.85-1.73,1.45c-.48.6-.84,1.27-1.09,2.03-.25.76-.37,1.52-.37,2.3,0,.83.15,1.63.45,2.39.3.76.71,1.42,1.22,1.98.52.57,1.13,1.01,1.83,1.34.71.33,1.47.49,2.28.49Z"/>
          <path class="cls-1" d="M442.71,122.45h-2.03v-8.68c0-1.77-.3-3.09-.91-3.97-.61-.87-1.5-1.31-2.67-1.31-.58,0-1.15.11-1.71.34-.57.23-1.1.54-1.6.94-.5.4-.93.86-1.3,1.4-.37.54-.64,1.12-.82,1.76v9.51h-2.03v-21.77h2.03v9.75c.64-1.17,1.5-2.1,2.59-2.77,1.09-.68,2.27-1.01,3.52-1.01.89,0,1.66.16,2.28.49.63.33,1.13.79,1.52,1.37.39.59.67,1.29.85,2.12.18.82.27,1.73.27,2.73v9.1Z"/>
          <path class="cls-1" d="M454.94,121.7c-.12.06-.29.14-.52.24-.23.1-.49.2-.79.3-.3.1-.64.19-1.01.27-.38.08-.78.12-1.19.12-.44,0-.86-.06-1.25-.18-.4-.12-.75-.3-1.04-.55-.3-.25-.54-.56-.72-.94-.18-.38-.27-.82-.27-1.31v-11.13h-2.15v-1.61h2.15v-5.25h2.03v5.25h3.58v1.61h-3.58v10.56c.04.58.24,1,.6,1.27.36.27.79.4,1.28.4.58,0,1.08-.09,1.52-.28.44-.19.72-.32.83-.4l.54,1.64Z"/>
          <path class="cls-1" d="M463.17,122.74c-1.21,0-2.4-.2-3.55-.6-1.15-.4-2.15-.97-2.98-1.73l.92-1.37c.87.72,1.76,1.25,2.67,1.61s1.87.54,2.91.54c1.25,0,2.25-.25,3-.76.75-.51,1.12-1.23,1.12-2.16,0-.44-.1-.8-.3-1.09-.2-.29-.49-.54-.88-.76-.39-.22-.88-.41-1.46-.58-.59-.17-1.27-.34-2.04-.52-.89-.22-1.67-.44-2.33-.66-.66-.22-1.2-.47-1.63-.75-.43-.28-.75-.62-.95-1.03s-.31-.92-.31-1.54c0-.78.15-1.46.46-2.06.31-.6.73-1.09,1.25-1.48.53-.39,1.14-.68,1.85-.88s1.46-.3,2.25-.3c1.19,0,2.28.19,3.25.58.97.39,1.76.9,2.36,1.54l-.98,1.19c-.58-.6-1.28-1.04-2.1-1.34-.83-.3-1.68-.45-2.58-.45-.54,0-1.03.05-1.49.16-.46.11-.86.28-1.21.52-.35.24-.62.54-.82.91-.2.37-.3.8-.3,1.3,0,.42.07.76.21,1.01.14.26.37.48.69.67.32.19.72.36,1.21.51.49.15,1.08.3,1.77.46.99.24,1.87.48,2.62.72.76.24,1.39.52,1.89.83.51.32.89.71,1.15,1.16.26.46.39,1.01.39,1.67,0,1.43-.55,2.57-1.64,3.4-1.09.84-2.56,1.25-4.41,1.25Z"/>
          <path class="cls-1" d="M481.63,126.32v-26.99h1.76v26.99h-1.76Z"/>
          <path class="cls-1" d="M497.41,122.45v-21.18h8.77c.91,0,1.75.19,2.52.58.76.39,1.43.89,1.98,1.52.56.63.99,1.34,1.3,2.13.31.8.46,1.6.46,2.42,0,.87-.14,1.71-.43,2.52s-.7,1.52-1.24,2.13c-.54.62-1.18,1.11-1.92,1.49-.75.38-1.58.57-2.49.57h-6.89v7.81h-2.06ZM499.47,112.78h6.77c.62,0,1.18-.13,1.68-.4.51-.27.94-.63,1.3-1.07.36-.45.64-.96.84-1.55.2-.59.3-1.2.3-1.83s-.11-1.28-.34-1.86-.54-1.1-.92-1.54c-.39-.44-.85-.78-1.37-1.03-.53-.25-1.08-.37-1.66-.37h-6.59v9.66Z"/>
          <path class="cls-1" d="M523.81,108.7c-1.37.04-2.57.42-3.58,1.13s-1.73,1.7-2.15,2.95v9.66h-2.03v-15.54h1.91v3.73c.54-1.09,1.24-2,2.12-2.73.88-.73,1.82-1.09,2.83-1.09h.51c.16,0,.29.01.39.03v1.85Z"/>
          <path class="cls-1" d="M533.14,122.74c-1.13,0-2.17-.21-3.12-.64-.94-.43-1.76-1.01-2.45-1.75-.69-.74-1.22-1.59-1.6-2.56-.38-.97-.57-2-.57-3.07s.19-2.13.58-3.1c.39-.97.92-1.83,1.61-2.56.69-.74,1.5-1.32,2.45-1.76.94-.44,1.97-.66,3.09-.66s2.14.22,3.09.66c.94.44,1.76,1.02,2.45,1.76.69.74,1.22,1.59,1.61,2.56.39.97.58,2.01.58,3.1s-.19,2.1-.58,3.07c-.39.97-.92,1.83-1.61,2.56-.69.74-1.5,1.32-2.45,1.75-.94.43-1.97.64-3.09.64ZM527.5,114.75c0,.87.14,1.68.43,2.43.29.75.69,1.4,1.19,1.97.51.57,1.1,1.01,1.79,1.33.69.32,1.42.48,2.19.48s1.51-.16,2.19-.49c.69-.33,1.29-.78,1.8-1.34.52-.57.92-1.23,1.22-1.98s.45-1.57.45-2.45-.15-1.66-.45-2.43c-.3-.77-.71-1.43-1.22-2-.52-.57-1.11-1.01-1.79-1.34-.68-.33-1.4-.49-2.18-.49s-1.51.16-2.19.49c-.69.33-1.28.78-1.79,1.36-.51.58-.91,1.25-1.21,2.01-.3.77-.45,1.59-.45,2.46Z"/>
          <path class="cls-1" d="M548.92,122.45l-6.32-15.54h2.12l5.34,13.66,5.37-13.66h1.97l-6.32,15.54h-2.15Z"/>
          <path class="cls-1" d="M567.5,122.74c-1.13,0-2.18-.21-3.13-.64-.95-.43-1.78-1.01-2.48-1.76s-1.24-1.61-1.63-2.58c-.39-.97-.58-2.02-.58-3.13s.19-2.12.58-3.09c.39-.96.93-1.81,1.63-2.53s1.52-1.3,2.46-1.73c.94-.43,1.98-.64,3.12-.64s2.17.21,3.12.64c.94.43,1.75,1.01,2.43,1.74.68.74,1.2,1.58,1.58,2.54.38.95.57,1.97.57,3.04,0,.16,0,.32-.02.48s-.02.27-.04.33h-13.27c.06.84.25,1.61.58,2.31.33.71.75,1.32,1.25,1.83.51.52,1.09.92,1.76,1.21.67.29,1.38.43,2.13.43.52,0,1.02-.07,1.52-.21.5-.14.95-.33,1.37-.57s.79-.53,1.12-.88.58-.73.76-1.15l1.76.48c-.24.58-.58,1.1-1.01,1.57-.44.47-.94.88-1.52,1.22-.58.35-1.21.62-1.91.81-.7.19-1.41.28-2.15.28ZM573.23,113.86c-.06-.84-.25-1.6-.58-2.28s-.75-1.28-1.25-1.77c-.51-.5-1.1-.88-1.77-1.16-.68-.28-1.39-.42-2.15-.42s-1.47.14-2.15.42c-.68.28-1.27.67-1.77,1.16-.51.5-.91,1.09-1.22,1.79-.31.7-.49,1.45-.55,2.27h11.45Z"/>
          <path class="cls-1" d="M591.9,122.45h-2.03v-8.68c0-1.85-.27-3.19-.81-4.03-.54-.84-1.37-1.25-2.51-1.25-.6,0-1.19.11-1.79.33-.6.22-1.15.53-1.67.92-.52.4-.97.87-1.36,1.42-.39.55-.68,1.14-.88,1.77v9.51h-2.03v-15.54h1.85v3.52c.32-.56.71-1.07,1.18-1.54.47-.47.99-.87,1.57-1.21s1.19-.6,1.83-.78c.65-.18,1.32-.27,2.01-.27.87,0,1.61.16,2.19.48.59.32,1.06.77,1.42,1.34s.62,1.28.78,2.12c.16.84.24,1.76.24,2.77v9.1Z"/>
          <path class="cls-1" d="M605.5,122.45v-21.18h7.16c1.69,0,3.17.28,4.44.84s2.33,1.31,3.18,2.27c.84.95,1.48,2.07,1.89,3.36.42,1.28.63,2.65.63,4.1,0,1.61-.24,3.07-.72,4.37-.48,1.3-1.15,2.42-2.03,3.34s-1.94,1.64-3.19,2.15c-1.25.51-2.65.76-4.21.76h-7.16ZM620.71,111.83c0-1.27-.18-2.44-.54-3.5-.36-1.06-.88-1.98-1.57-2.76-.69-.78-1.53-1.38-2.52-1.8-.99-.43-2.14-.64-3.43-.64h-5.1v17.48h5.1c1.31,0,2.47-.22,3.47-.67s1.84-1.06,2.52-1.85c.68-.79,1.19-1.71,1.54-2.77.35-1.06.52-2.22.52-3.47Z"/>
          <path class="cls-1" d="M633.84,122.74c-1.13,0-2.18-.21-3.13-.64-.95-.43-1.78-1.01-2.48-1.76s-1.24-1.61-1.63-2.58c-.39-.97-.58-2.02-.58-3.13s.19-2.12.58-3.09c.39-.96.93-1.81,1.63-2.53s1.52-1.3,2.46-1.73c.94-.43,1.98-.64,3.12-.64s2.17.21,3.12.64c.94.43,1.75,1.01,2.43,1.74.68.74,1.2,1.58,1.58,2.54.38.95.57,1.97.57,3.04,0,.16,0,.32-.02.48s-.02.27-.04.33h-13.27c.06.84.25,1.61.58,2.31.33.71.75,1.32,1.25,1.83.51.52,1.09.92,1.76,1.21.67.29,1.38.43,2.13.43.52,0,1.02-.07,1.52-.21.5-.14.95-.33,1.37-.57s.79-.53,1.12-.88.58-.73.76-1.15l1.76.48c-.24.58-.58,1.1-1.01,1.57-.44.47-.94.88-1.52,1.22-.58.35-1.21.62-1.91.81-.7.19-1.41.28-2.15.28ZM639.56,113.86c-.06-.84-.25-1.6-.58-2.28s-.75-1.28-1.25-1.77c-.51-.5-1.1-.88-1.77-1.16-.68-.28-1.39-.42-2.15-.42s-1.47.14-2.15.42c-.68.28-1.27.67-1.77,1.16-.51.5-.91,1.09-1.22,1.79-.31.7-.49,1.45-.55,2.27h11.45Z"/>
          <path class="cls-1" d="M645.26,100.67h2.03v18.25c0,.58.16,1.03.48,1.36.32.33.77.49,1.34.49.22,0,.48-.03.78-.09.3-.06.58-.14.84-.24l.36,1.64c-.38.16-.84.29-1.39.39-.55.1-1.02.15-1.42.15-.94,0-1.67-.26-2.21-.79s-.81-1.27-.81-2.22v-18.94Z"/>
          <path class="cls-1" d="M653.67,103.65v-2.98h2.03v2.98h-2.03ZM653.67,122.45v-15.54h2.03v15.54h-2.03Z"/>
          <path class="cls-1" d="M665.33,122.45l-6.32-15.54h2.12l5.34,13.66,5.37-13.66h1.97l-6.32,15.54h-2.15Z"/>
          <path class="cls-1" d="M683.91,122.74c-1.13,0-2.18-.21-3.13-.64-.95-.43-1.78-1.01-2.48-1.76s-1.24-1.61-1.63-2.58c-.39-.97-.58-2.02-.58-3.13s.19-2.12.58-3.09c.39-.96.93-1.81,1.63-2.53s1.52-1.3,2.46-1.73c.94-.43,1.98-.64,3.12-.64s2.17.21,3.12.64c.94.43,1.75,1.01,2.43,1.74.68.74,1.2,1.58,1.58,2.54.38.95.57,1.97.57,3.04,0,.16,0,.32-.02.48s-.02.27-.04.33h-13.27c.06.84.25,1.61.58,2.31.33.71.75,1.32,1.25,1.83.51.52,1.09.92,1.76,1.21.67.29,1.38.43,2.13.43.52,0,1.02-.07,1.52-.21.5-.14.95-.33,1.37-.57s.79-.53,1.12-.88.58-.73.76-1.15l1.76.48c-.24.58-.58,1.1-1.01,1.57-.44.47-.94.88-1.52,1.22-.58.35-1.21.62-1.91.81-.7.19-1.41.28-2.15.28ZM689.64,113.86c-.06-.84-.25-1.6-.58-2.28s-.75-1.28-1.25-1.77c-.51-.5-1.1-.88-1.77-1.16-.68-.28-1.39-.42-2.15-.42s-1.47.14-2.15.42c-.68.28-1.27.67-1.77,1.16-.51.5-.91,1.09-1.22,1.79-.31.7-.49,1.45-.55,2.27h11.45Z"/>
          <path class="cls-1" d="M703,108.7c-1.37.04-2.57.42-3.58,1.13s-1.73,1.7-2.15,2.95v9.66h-2.03v-15.54h1.91v3.73c.54-1.09,1.24-2,2.12-2.73.88-.73,1.82-1.09,2.83-1.09h.51c.16,0,.29.01.39.03v1.85Z"/>
          <path class="cls-1" d="M707.24,127.25c.1.02.2.03.3.04s.2.01.3.01c.2,0,.41-.02.64-.06.23-.04.39-.08.49-.12.1-.04.2-.12.31-.25.11-.13.25-.36.42-.69.17-.33.38-.79.64-1.37.26-.59.59-1.38.98-2.37l-6.77-15.54h2.12l5.76,13.66,5.31-13.66h1.94l-8.08,20.04c-.3.74-.7,1.28-1.21,1.64-.51.36-1.22.54-2.13.54-.38,0-.72-.03-1.01-.09v-1.79Z"/>
        </g>
        <path class="cls-1" d="M226.83,82.74c157.87-1.48,334.98-1.49,492.85,0-157.87,1.49-334.98,1.48-492.85,0h0Z"/>
      </g>
    </g>
  </g>
</svg>
